<svg width="17" height="17" viewBox="0 0 17 17" fill="none" xmlns="http://www.w3.org/2000/svg">
<path d="M16.3331 13.2544C15.9066 12.3661 15.2878 11.5592 14.511 10.8788C13.7366 10.1963 12.8192 9.6522 11.8096 9.27646C11.8005 9.27249 11.7915 9.2705 11.7824 9.26653C13.1908 8.37194 14.1063 6.91477 14.1063 5.27072C14.1063 2.54721 11.5971 0.340576 8.5 0.340576C5.40295 0.340576 2.89365 2.54721 2.89365 5.27072C2.89365 6.91477 3.80921 8.37194 5.21758 9.26851C5.20853 9.27249 5.19949 9.27448 5.19045 9.27845C4.17769 9.65418 3.26892 10.1929 2.489 10.8808C1.71295 11.5618 1.09421 12.3685 0.66694 13.2564C0.247193 14.1256 0.0208134 15.0575 5.65291e-05 16.0017C-0.000546843 16.023 0.00368511 16.0441 0.0125031 16.0638C0.0213212 16.0836 0.0345468 16.1016 0.0514007 16.1168C0.0682546 16.132 0.0883959 16.144 0.110638 16.1523C0.132879 16.1605 0.156772 16.1648 0.180906 16.1648H1.53728C1.63675 16.1648 1.71587 16.0952 1.71813 16.0097C1.76334 14.475 2.46414 13.0377 3.70296 11.9483C4.98473 10.8211 6.68698 10.2009 8.5 10.2009C10.313 10.2009 12.0153 10.8211 13.297 11.9483C14.5359 13.0377 15.2367 14.475 15.2819 16.0097C15.2841 16.0972 15.3633 16.1648 15.4627 16.1648H16.8191C16.8432 16.1648 16.8671 16.1605 16.8894 16.1523C16.9116 16.144 16.9317 16.132 16.9486 16.1168C16.9655 16.1016 16.9787 16.0836 16.9875 16.0638C16.9963 16.0441 17.0005 16.023 16.9999 16.0017C16.9773 15.0515 16.7535 14.1271 16.3331 13.2544ZM8.5 8.69002C7.46237 8.69002 6.48578 8.33417 5.75108 7.68808C5.01638 7.042 4.61173 6.1832 4.61173 5.27072C4.61173 4.35825 5.01638 3.49945 5.75108 2.85336C6.48578 2.20727 7.46237 1.85143 8.5 1.85143C9.53763 1.85143 10.5142 2.20727 11.2489 2.85336C11.9836 3.49945 12.3883 4.35825 12.3883 5.27072C12.3883 6.1832 11.9836 7.042 11.2489 7.68808C10.5142 8.33417 9.53763 8.69002 8.5 8.69002Z" fill="#A4A4A4"/>
</svg>
