<svg width="20" height="20" viewBox="0 0 20 20" fill="none" xmlns="http://www.w3.org/2000/svg">
<path d="M10 20C4.47715 20 0 15.5228 0 10C0 4.47715 4.47715 0 10 0C15.5228 0 20 4.47715 20 10C19.9939 15.5203 15.5203 19.9939 10 20ZM9 2.062C5.72604 2.47603 3.04227 4.85789 2.24231 8.05949C1.44234 11.2611 2.69036 14.6254 5.38479 16.5307C8.07922 18.436 11.6671 18.4913 14.419 16.67L14.319 16.741L14.413 16.676L14.472 16.635L14.536 16.59L14.552 16.579L14.561 16.572L9.433 11.442C9.15437 11.1585 8.99879 10.7765 9 10.379V2.062ZM11.829 11L16.056 15.227L16.063 15.219L16.068 15.213L16.058 15.224C17.0896 14.0335 17.744 12.5633 17.938 11H11.829ZM11 2.062V9H17.938C17.4815 5.37411 14.6259 2.51851 11 2.062Z" fill="#626262"/>
</svg>
