<svg width="114" height="108" viewBox="0 0 114 108" fill="none" xmlns="http://www.w3.org/2000/svg">
<path fill-rule="evenodd" clip-rule="evenodd" d="M57 11.3333C31.3172 11.3333 11.6666 29.7017 11.6666 51C11.6666 72.2982 31.3172 90.6667 57 90.6667C60.5184 90.6667 63.936 90.3159 67.213 89.6552C67.8975 89.5169 68.6013 89.5067 69.2893 89.6246L99.1118 94.7297L93.1924 79.428C92.462 77.5387 92.7952 75.4029 94.0668 73.8265C99.3147 67.3194 102.333 59.4456 102.333 51C102.333 29.7017 82.683 11.3333 57 11.3333ZM0.333313 51C0.333313 22.2244 26.3497 0 57 0C87.6504 0 113.667 22.2244 113.667 51C113.667 61.0719 110.423 70.4265 104.899 78.2754L113.285 99.9555C114.021 101.858 113.677 104.009 112.386 105.588C111.095 107.167 109.055 107.93 107.044 107.586L68.3922 100.969C64.7072 101.646 60.8969 102 57 102C26.3497 102 0.333313 79.7753 0.333313 51Z" fill="#DBDBDB"/>
</svg>
