<svg width="16" height="16" viewBox="0 0 16 16" fill="none" xmlns="http://www.w3.org/2000/svg">
<path d="M9.00088 15.4999H1.50088C1.09893 15.5139 0.709232 15.3603 0.424843 15.0759C0.140454 14.7915 -0.0130915 14.4018 0.000876176 13.9999V6.4999C-0.0130915 6.09796 0.140454 5.70826 0.424843 5.42387C0.709232 5.13948 1.09893 4.98593 1.50088 4.9999H4.50088V1.9999C4.48691 1.59796 4.64045 1.20826 4.92484 0.923866C5.20923 0.639477 5.59893 0.485932 6.00088 0.4999H13.5009C13.9028 0.485932 14.2925 0.639477 14.5769 0.923866C14.8613 1.20826 15.0148 1.59796 15.0009 1.9999V9.4999C15.0146 9.90178 14.861 10.2913 14.5767 10.5757C14.2923 10.86 13.9028 11.0136 13.5009 10.9999H10.5009V13.9999C10.5146 14.4018 10.361 14.7913 10.0767 15.0757C9.79233 15.36 9.40276 15.5136 9.00088 15.4999ZM1.50088 6.4999V13.9999H9.00088V10.9999H6.00088C5.599 11.0136 5.20943 10.86 4.92509 10.5757C4.64075 10.2913 4.48713 9.90178 4.50088 9.4999V6.4999H1.50088ZM6.00088 1.9999V9.4999H13.5009V1.9999H6.00088Z" fill="#016DD1" fill-opacity="0.87"/>
</svg>
