<?xml version="1.0" standalone="no"?>
<!DOCTYPE svg PUBLIC "-//W3C//DTD SVG 20010904//EN"
 "http://www.w3.org/TR/2001/REC-SVG-20010904/DTD/svg10.dtd">
<svg version="1.0" xmlns="http://www.w3.org/2000/svg"
 width="30.000000pt" height="30.000000pt" viewBox="0 0 30.000000 30.000000"
 preserveAspectRatio="xMidYMid meet">

<g transform="translate(0.000000,30.000000) scale(0.100000,-0.100000)"
fill="#000000" stroke="none">
<path d="M24 247 c-3 -8 -4 -43 -2 -78 l3 -64 125 0 125 0 0 75 0 75 -123 3
c-97 2 -123 0 -128 -11z m224 -19 c7 -7 12 -28 12 -48 0 -20 -5 -41 -12 -48
-16 -16 -180 -16 -196 0 -16 16 -16 80 0 96 16 16 180 16 196 0z"/>
<path d="M120 206 c-6 -8 -10 -25 -8 -38 2 -19 9 -23 38 -23 29 0 36 4 38 23
6 44 -41 70 -68 38z"/>
<path d="M60 180 c0 -5 5 -10 10 -10 6 0 10 5 10 10 0 6 -4 10 -10 10 -5 0
-10 -4 -10 -10z"/>
<path d="M220 180 c0 -5 5 -10 10 -10 6 0 10 5 10 10 0 6 -4 10 -10 10 -5 0
-10 -4 -10 -10z"/>
<path d="M30 71 c0 -4 28 -11 63 -14 35 -3 84 -13 110 -22 54 -18 67 -14 67
21 0 28 -8 31 -24 9 -10 -14 -18 -14 -76 -1 -72 17 -140 21 -140 7z"/>
</g>
</svg>
