<svg width="28" height="22" viewBox="0 0 28 22" fill="none" xmlns="http://www.w3.org/2000/svg">
<path fill-rule="evenodd" clip-rule="evenodd" d="M8.03654 0.199278C8.19098 0.0716826 8.40045 0 8.61886 0H19.3747C19.5931 0 19.8025 0.0716826 19.957 0.199278L22.6459 2.42083C22.8665 2.60306 22.9435 2.8726 22.8449 3.11709L22.5598 3.8236L25.3686 5.14729C26.9956 5.91404 28 7.34272 28 8.89023V17.6909C28 20.0708 25.6649 22 22.7843 22H5.21566C2.33513 22 0 20.0708 0 17.6909V8.88439C0 7.34059 0.999637 5.91475 2.62051 5.1466L5.43025 3.81504L5.14865 3.11709C5.05001 2.8726 5.12702 2.60306 5.34759 2.42083L8.03654 0.199278ZM7.23243 3.97873C7.22042 3.93417 7.20281 3.8901 7.17936 3.84719L6.87213 3.0857L8.47248 1.76352L12.7794 7.40131L9.12021 8.65766L7.23243 3.97873ZM5.96158 5.13197L3.44003 6.32696C2.33101 6.85253 1.64705 7.82811 1.64705 8.88439V17.6909C1.64705 19.3192 3.24477 20.6392 5.21566 20.6392H22.7843C24.7552 20.6392 26.3529 19.3192 26.3529 17.6909V8.89023C26.3529 7.83141 25.6657 6.85389 24.5525 6.32927L22.0287 5.13989L20.1559 9.78175C20.0836 9.96102 19.9243 10.1074 19.7162 10.1857C19.508 10.2641 19.2698 10.2674 19.0586 10.1949L14.8203 8.73967V17.6143C14.8203 17.99 14.4516 18.2946 13.9968 18.2946C13.5419 18.2946 13.1732 17.99 13.1732 17.6143V8.73967L8.9349 10.1949C8.72369 10.2674 8.48549 10.2641 8.27736 10.1857C8.06923 10.1074 7.90993 9.96102 7.8376 9.78175L5.96158 5.13197ZM15.2141 7.40131L19.521 1.76352L21.1214 3.0857L20.8131 3.84972C20.7864 3.89719 20.7669 3.94612 20.7543 3.9956L18.8733 8.65766L15.2141 7.40131ZM17.8811 1.36076H10.1125L13.9968 6.44536L17.8811 1.36076ZM9.66243 12.419C9.90109 12.0991 10.4084 11.9996 10.7956 12.1968L10.7986 12.1984C11.1858 12.3955 11.3062 12.8147 11.0676 13.1346C10.8289 13.4544 10.3216 13.5539 9.93439 13.3567L9.93135 13.3552C9.54417 13.158 9.42378 12.7389 9.66243 12.419ZM9.66243 15.9674C9.90109 15.6475 10.4084 15.548 10.7956 15.7452L10.7986 15.7467C11.1858 15.9439 11.3062 16.3631 11.0676 16.6829C10.8289 17.0028 10.3216 17.1023 9.93439 16.9051L9.93135 16.9036C9.54417 16.7064 9.42378 16.2872 9.66243 15.9674Z" fill="#016DD1" fill-opacity="0.87"/>
</svg>
