<svg width="35" height="31" viewBox="0 0 35 31" fill="none" xmlns="http://www.w3.org/2000/svg">
<g id="icon/content/weekend_24px">
<path id="icon/content/weekend_24px_2" fill-rule="evenodd" clip-rule="evenodd" d="M30.625 11.625V9.04167C30.625 6.91042 28.6562 5.16667 26.25 5.16667H8.75C6.34375 5.16667 4.375 6.91042 4.375 9.04167V11.625C1.96875 11.625 0 13.3688 0 15.5V21.9583C0 24.0896 1.96875 25.8333 4.375 25.8333H30.625C33.0312 25.8333 35 24.0896 35 21.9583V15.5C35 13.3688 33.0312 11.625 30.625 11.625ZM7.29167 9.04167C7.29167 8.33125 7.94792 7.75 8.75 7.75H26.25C27.0521 7.75 27.7083 8.33125 27.7083 9.04167V12.6325C26.8188 13.3429 26.25 14.3633 26.25 15.5V18.0833H8.75V15.5C8.75 14.3633 8.18125 13.3429 7.29167 12.6325V9.04167ZM30.625 23.25C31.4271 23.25 32.0833 22.6688 32.0833 21.9583V15.5C32.0833 14.7896 31.4271 14.2083 30.625 14.2083C29.8229 14.2083 29.1667 14.7896 29.1667 15.5V20.6667H5.83333V15.5C5.83333 14.7896 5.17708 14.2083 4.375 14.2083C3.57292 14.2083 2.91667 14.7896 2.91667 15.5V21.9583C2.91667 22.6688 3.57292 23.25 4.375 23.25H30.625Z" fill="#ACACAC"/>
</g>
</svg>
