<svg width="20" height="18" viewBox="0 0 20 18" fill="none" xmlns="http://www.w3.org/2000/svg">
<path d="M9.31127 0.56235C9.49427 0.419482 9.73052 0.340576 9.97527 0.340576C10.22 0.340576 10.4563 0.419482 10.6393 0.56235L19.6393 7.59532C19.8274 7.75243 19.9387 7.96768 19.9496 8.1956C19.9606 8.42352 19.8703 8.64625 19.6979 8.81675C19.5256 8.98725 19.2845 9.09216 19.0258 9.10932C18.767 9.12648 18.5108 9.05455 18.3113 8.90872L17.9753 8.64762V15.285C17.9753 15.7513 17.7646 16.1985 17.3895 16.5282C17.0144 16.858 16.5057 17.0432 15.9753 17.0432H12.9753H6.97527H3.97527C3.44484 17.0432 2.93613 16.858 2.56105 16.5282C2.18598 16.1985 1.97527 15.7513 1.97527 15.285V8.64762L1.63927 8.90872C1.43973 9.05455 1.18352 9.12648 0.924768 9.10932C0.666017 9.09216 0.424985 8.98725 0.252592 8.81675C0.080198 8.64625 -0.0100576 8.42352 0.000891447 8.1956C0.0118405 7.96768 0.123137 7.75243 0.311269 7.59532L9.31127 0.56235ZM3.97527 7.08279V15.285H6.97527V10.8894C6.97527 10.6562 7.08063 10.4326 7.26816 10.2677C7.4557 10.1029 7.71005 10.0103 7.97527 10.0103H11.9753C12.2405 10.0103 12.4948 10.1029 12.6824 10.2677C12.8699 10.4326 12.9753 10.6562 12.9753 10.8894V15.285H15.9753V7.08367L9.97527 2.39532L3.97527 7.08279ZM10.9753 15.285V11.7685H8.97527V15.285H10.9753Z" fill="url(#paint0_linear_22_10)"/>
<defs>
<linearGradient id="paint0_linear_22_10" x1="-1.59606" y1="30.6141" x2="24.6398" y2="26.2737" gradientUnits="userSpaceOnUse">
<stop offset="0.445628" stop-color="#17259C" stop-opacity="0.96"/>
<stop offset="1" stop-color="#016DD1" stop-opacity="0.87"/>
</linearGradient>
</defs>
</svg>
