<?xml version="1.0" standalone="no"?>
<!DOCTYPE svg PUBLIC "-//W3C//DTD SVG 20010904//EN"
 "http://www.w3.org/TR/2001/REC-SVG-20010904/DTD/svg10.dtd">
<svg version="1.0" xmlns="http://www.w3.org/2000/svg"
 width="300.000000pt" height="81.000000pt" viewBox="0 0 300.000000 81.000000"
 preserveAspectRatio="xMidYMid meet">
<metadata>
Created by potrace 1.10, written by Peter Selinger 2001-2011
</metadata>
<g transform="translate(0.000000,81.000000) scale(0.100000,-0.100000)"
fill="#000000" stroke="none">
<path d="M100 715 c0 0 -1 -138 -3 -307 l-2 -307 243 -3 242 -3 0 307 0 307
-240 3 c-132 2 -240 3 -240 3z m460 -310 l0 -285 -220 0 c-140 0 -220 4 -220
10 0 6 21 11 48 12 l47 2 -47 3 -48 4 1 270 1 269 219 0 219 0 0 -285z"/>
<path d="M300 658 c0 -4 -10 -10 -22 -14 -50 -15 -88 -80 -81 -139 2 -22 4
-46 5 -53 1 -6 3 -10 6 -8 2 3 18 -10 36 -28 17 -18 44 -36 59 -40 15 -4 25
-11 22 -16 -3 -6 6 -10 20 -10 22 0 24 -2 13 -14 -9 -10 -15 -11 -20 -2 -4 6
-8 7 -8 1 0 -5 -4 -4 -9 3 -4 7 -24 17 -44 22 -31 7 -37 5 -42 -11 -4 -10 -11
-18 -18 -16 -6 1 -12 -2 -12 -8 -1 -5 -5 -19 -10 -29 -13 -29 14 -68 65 -94
37 -19 55 -22 100 -17 81 8 80 8 80 16 0 4 13 16 29 25 48 28 62 106 32 177
-6 16 -8 33 -5 39 4 6 2 8 -3 5 -6 -4 -22 2 -36 13 l-25 20 39 39 c21 21 39
44 39 51 0 25 -68 78 -112 86 -55 10 -98 11 -98 2z m125 -37 c66 -30 71 -43
34 -84 l-32 -35 -27 20 c-31 22 -73 21 -78 -2 -2 -10 22 -29 68 -53 38 -21 77
-48 85 -60 40 -57 22 -141 -37 -177 -44 -26 -125 -27 -177 -1 -61 31 -64 41
-26 84 l34 39 21 -20 c28 -26 65 -35 90 -22 36 19 18 45 -60 85 -63 32 -100
77 -100 122 0 99 102 151 205 104z"/>
<path d="M604 685 c-3 -8 -3 -19 1 -25 9 -15 35 -12 41 5 8 20 87 20 104 1 6
-8 35 -110 63 -225 l51 -211 43 0 c32 0 43 4 43 15 0 10 -10 15 -32 15 l-33 0
-48 199 c-27 109 -55 208 -63 220 -13 18 -25 21 -90 21 -56 0 -76 -4 -80 -15z"/>
<path d="M2820 497 c0 -98 -4 -147 -12 -155 -18 -18 -56 -14 -68 7 -14 28 -13
38 11 62 16 16 23 18 35 8 12 -10 14 -2 14 50 l0 61 -38 0 c-107 0 -176 -131
-121 -230 60 -106 222 -104 273 4 13 27 16 66 16 185 l0 151 -55 0 -55 0 0
-143z m82 8 c1 -58 2 -120 2 -137 1 -26 -3 -33 -17 -32 -14 2 -15 -1 -6 -12
14 -17 -5 -46 -25 -38 -6 2 -22 -7 -35 -21 -18 -22 -29 -26 -57 -22 -20 3 -42
13 -50 23 -9 11 -12 12 -8 4 4 -8 -3 -5 -15 7 -11 12 -21 27 -21 33 0 6 -4 9
-8 6 -4 -2 -9 3 -10 12 -5 40 -5 48 -4 70 1 15 6 21 14 16 7 -4 8 -3 4 4 -10
16 24 64 40 58 8 -3 13 0 11 6 -2 12 48 30 57 20 13 -13 4 -48 -15 -60 -17
-11 -20 -11 -14 0 3 7 -3 2 -14 -11 -40 -45 -18 -127 34 -126 37 1 64 16 71
38 4 12 9 69 11 127 1 58 3 113 4 123 0 11 8 17 25 17 24 0 24 -1 26 -105z"/>
<path d="M1072 522 c-118 -2 -172 -6 -170 -13 2 -7 58 -10 166 -10 l163 2 -14
-28 c-8 -15 -29 -70 -47 -120 -32 -92 -33 -93 -66 -93 -23 0 -34 -5 -34 -14 0
-11 11 -14 43 -13 l42 2 53 139 c30 76 50 141 45 145 -4 3 -86 5 -181 3z"/>
<path d="M1372 510 c-102 -62 -95 -223 11 -274 59 -28 139 -15 183 28 66 67
54 191 -25 243 -44 30 -122 31 -169 3z m125 -9 c7 -1 28 -16 48 -35 32 -31 35
-40 35 -89 0 -45 -5 -59 -27 -85 -30 -33 -88 -54 -125 -45 -13 3 -34 17 -47
32 -13 14 -20 19 -16 11 3 -8 -2 -5 -13 7 -27 31 -36 95 -18 138 8 19 18 35
21 35 3 0 3 -6 0 -12 -4 -7 2 -3 12 10 20 24 66 42 98 37 11 -2 26 -4 32 -4z"/>
<path d="M1418 434 c-22 -12 -28 -22 -28 -50 0 -40 16 -77 30 -69 5 3 11 1 14
-4 9 -14 58 -3 72 17 7 9 10 20 8 24 -2 4 0 9 5 12 12 8 2 48 -18 66 -22 21
-51 22 -83 4z m77 -44 c9 -28 -12 -60 -38 -60 -48 0 -65 57 -25 84 25 18 53 7
63 -24z"/>
<path d="M1720 511 c-20 -10 -44 -36 -57 -61 -21 -39 -23 -57 -23 -189 l0
-146 52 0 53 0 5 143 c4 127 7 145 24 158 17 12 23 12 40 0 42 -27 26 -92 -21
-83 -22 4 -23 2 -23 -56 l0 -60 46 6 c82 9 134 70 134 157 0 116 -125 188
-230 131z m132 -15 c7 6 59 -52 62 -67 1 -8 7 -24 14 -36 9 -17 9 -28 0 -47
-6 -14 -15 -26 -19 -26 -5 0 -6 -6 -3 -13 5 -14 -62 -57 -90 -57 -26 0 -20 48
8 61 49 23 60 87 20 118 -34 27 -62 27 -91 -1 -22 -20 -23 -29 -23 -149 0 -75
-4 -130 -10 -134 -6 -3 -20 -3 -31 0 -20 7 -21 12 -17 150 3 124 6 146 22 164
11 12 26 19 33 17 7 -3 16 1 20 8 10 18 41 24 75 15 14 -4 28 -5 30 -3z"/>
<path d="M2030 507 c-61 -41 -69 -64 -71 -236 l-2 -153 57 -2 56 -1 0 142 c0
115 3 144 16 157 20 21 30 20 54 -4 23 -23 24 -33 9 -62 -8 -15 -17 -19 -37
-15 l-27 6 3 -60 4 -59 32 0 c66 0 135 69 143 141 6 57 -28 124 -77 150 -49
26 -119 25 -160 -4z m124 -12 c49 -13 82 -61 85 -120 2 -35 -28 -95 -46 -95
-7 0 -12 -5 -10 -12 1 -6 -14 -13 -35 -15 -35 -4 -38 -2 -38 21 0 23 4 27 26
26 12 -1 41 45 36 59 -3 9 -1 12 6 7 19 -11 14 11 -10 49 -27 41 -62 46 -96
15 -28 -26 -31 -42 -34 -175 -3 -110 -3 -110 -28 -110 -25 0 -25 1 -25 92 0
51 -3 93 -6 93 -11 0 1 71 17 102 9 17 21 27 28 25 8 -3 13 1 12 10 0 10 13
21 34 28 37 13 38 13 84 0z"/>
<path d="M2369 507 c-88 -59 -92 -198 -6 -259 42 -30 114 -35 159 -12 l36 19
-34 39 c-27 32 -36 37 -48 27 -36 -30 -79 34 -60 88 8 21 16 26 43 26 19 0 36
-6 39 -12 2 -9 -7 -13 -27 -13 -26 0 -31 -4 -31 -25 0 -25 1 -25 86 -25 l87 0
-6 40 c-11 82 -68 130 -153 130 -36 0 -61 -6 -85 -23z m149 -25 c7 -10 10 -11
7 -4 -6 11 -3 11 13 1 12 -7 19 -15 17 -17 -2 -3 3 -11 11 -19 8 -9 14 -25 12
-36 -2 -16 -10 -21 -33 -21 -26 0 -30 4 -30 28 -1 30 -27 56 -56 56 -9 0 -28
-9 -43 -21 -39 -30 -37 -97 3 -140 26 -26 32 -29 51 -19 18 10 24 8 35 -7 10
-13 10 -20 2 -25 -12 -6 -66 -12 -79 -8 -5 1 -11 3 -15 4 -20 3 -73 49 -79 69
-32 100 39 194 136 180 19 -3 40 -12 48 -21z"/>
<path d="M930 380 c0 -19 7 -20 95 -20 88 0 95 1 95 20 0 19 -7 20 -95 20 -88
0 -95 -1 -95 -20z"/>
<path d="M880 191 c-15 -30 -12 -56 10 -76 36 -33 90 3 81 55 -7 39 -73 54
-91 21z m65 -36 c0 -23 -34 -33 -45 -14 -13 20 1 40 24 37 13 -2 21 -10 21
-23z"/>
<path d="M1056 194 c-32 -31 -7 -94 37 -94 21 0 57 35 57 55 0 21 -36 55 -59
55 -11 0 -27 -7 -35 -16z m62 -37 c2 -9 -4 -20 -12 -23 -21 -8 -46 13 -39 32
8 20 47 13 51 -9z"/>
<path d="M2726 192 c-3 -3 -6 -23 -6 -44 0 -52 27 -53 33 0 l4 37 1 -37 c1
-21 6 -38 11 -38 6 0 12 17 14 38 l4 37 1 -37 c1 -26 7 -38 17 -38 16 0 21 55
7 76 -7 11 -77 16 -86 6z"/>
<path d="M2832 158 l3 -43 45 0 45 0 3 43 c2 32 0 42 -12 42 -10 0 -16 -13
-19 -37 l-4 -38 -1 38 c-2 47 -22 49 -22 1 0 -23 -4 -33 -11 -28 -6 3 -9 19
-5 35 4 22 2 29 -10 29 -12 0 -14 -10 -12 -42z"/>
</g>
</svg>
